# xmcd
#
# Track frame offsets:
#	182
#	11280
#	23157
#	38480
#	50925
#	65125
#	78220
#	90767
#	106545
#	118007
#	130377
#	146345
#	163610
#	177825
#	190275
#	204137
#
# Disc length: 2963
#
# Revision: 2
# Processed by: cddbd v1.5.1PL0 Copyright (c) Steve Scherf et al.
# Submitted via: CDex 1.40Release
# Normalized: r1:DSETVAR1,TDELIM( - )
#
DISCID=c30b9110
DTITLE=Various Artist - Country Classics Volume 3
DYEAR=1988
DGENRE=Country
TTITLE0=Johnny Cash - San Quentin
TTITLE1=Lynn Anderson - You're My Man
TTITLE2=Dolly Parton - Make Love Work
TTITLE3=Roy Orbison - Blue Bayou
TTITLE4=George Jones - Good Year For The Roses
TTITLE5=Charlie Rich - Behind Closed Doors
TTITLE6=Don Williams - You're My Best Friend
TTITLE7=Willie Nelson - Always On My Mind
TTITLE8=Freddy Fender - Before The Next Teardrop Falls
TTITLE9=Tulsa - Don't It Make My Brown Eyes Blue
TTITLE10=The Oakridge Boys - I'm Settin' Fancy Free
TTITLE11=Emmylou Harris - Together Again
TTITLE12=Tammy Wynette - No Charge
TTITLE13=Frankie Laine - High Noon (Do Not Forsake Me)
TTITLE14=Ricky Skaggs - If That's The Way You Feel
TTITLE15=The Walkers - There's No More Corn On The Brasos
EXTD=YEAR: 1988 ID3G: 2
EXTT0=
EXTT1=
EXTT2=
EXTT3=
EXTT4=
EXTT5=
EXTT6=
EXTT7=
EXTT8=
EXTT9=
EXTT10=
EXTT11=
EXTT12=
EXTT13=
EXTT14=
EXTT15=
PLAYORDER=
